<?xml version="1.0" encoding="UTF-8" standalone="no"?><!DOCTYPE svg PUBLIC "-//W3C//DTD SVG 1.1//EN" "http://www.w3.org/Graphics/SVG/1.1/DTD/svg11.dtd"><svg width="100%" height="100%" viewBox="0 0 220 160" version="1.1" xmlns="http://www.w3.org/2000/svg" xmlns:xlink="http://www.w3.org/1999/xlink" xml:space="preserve" xmlns:serif="http://www.serif.com/" style="fill-rule:evenodd;clip-rule:evenodd;stroke-linejoin:round;stroke-miterlimit:1.41421;"><g><path d="M210,149.758c0,-55.229 -44.772,-100 -100,-100c-55.228,0 -100,44.771 -100,100l200,0Z"/><clipPath id="_clip1"><path d="M210,149.758c0,-55.229 -44.772,-100 -100,-100c-55.228,0 -100,44.771 -100,100l200,0Z"/></clipPath><g clip-path="url(#_clip1)"><path d="M210,49.758l-65,100l65,0l0,-100Z" style="fill:#ffc100;"/><path d="M172.737,157.856c14.221,-4.67 22.642,-12.154 22.642,-20.123c0,-13.706 -24.505,-24.834 -54.689,-24.834c-30.184,0 -54.69,11.128 -54.69,24.834c0,5.225 3.63,10.318 10.373,14.552l76.364,5.571Z" style="fill:#ffc100;"/><path d="M128.934,113.526c-10.889,-4.974 -27.453,-5.857 -44.24,-2.359c-27.988,5.832 -48.342,21.932 -45.425,35.931c2.472,11.863 21.056,18.715 44.739,16.496l44.926,-50.068Z" style="fill:#fed626;"/><g><path d="M10,49.758l65,100l-65,0l0,-100Z" style="fill:#fed626;"/></g></g><path d="M63.364,93.186l3.368,-0.211c0.072,0.547 0.221,0.964 0.445,1.25c0.364,0.464 0.885,0.696 1.562,0.696c0.506,0 0.895,-0.119 1.168,-0.356c0.274,-0.237 0.411,-0.512 0.411,-0.824c0,-0.297 -0.131,-0.563 -0.391,-0.797c-0.261,-0.234 -0.865,-0.456 -1.813,-0.664c-1.552,-0.349 -2.658,-0.813 -3.32,-1.391c-0.667,-0.578 -1,-1.315 -1,-2.211c0,-0.588 0.171,-1.144 0.512,-1.668c0.341,-0.523 0.854,-0.935 1.539,-1.234c0.685,-0.3 1.624,-0.449 2.816,-0.449c1.464,0 2.58,0.272 3.348,0.816c0.768,0.544 1.225,1.41 1.371,2.598l-3.336,0.195c-0.088,-0.515 -0.275,-0.89 -0.559,-1.125c-0.283,-0.234 -0.675,-0.351 -1.175,-0.351c-0.412,0 -0.722,0.087 -0.93,0.261c-0.208,0.175 -0.312,0.387 -0.312,0.637c0,0.182 0.085,0.346 0.257,0.492c0.167,0.151 0.563,0.292 1.188,0.422c1.547,0.333 2.655,0.671 3.324,1.012c0.669,0.341 1.156,0.764 1.461,1.269c0.305,0.506 0.457,1.071 0.457,1.696c0,0.734 -0.203,1.411 -0.609,2.031c-0.407,0.62 -0.974,1.09 -1.703,1.41c-0.73,0.32 -1.649,0.481 -2.758,0.481c-1.948,0 -3.297,-0.375 -4.047,-1.125c-0.75,-0.75 -1.175,-1.704 -1.274,-2.86Z" style="fill:#fff;fill-rule:nonzero;"/><path d="M75.848,85.522l9.485,0l0,2.445l-5.938,0l0,1.821l5.508,0l0,2.336l-5.508,0l0,2.257l6.11,0l0,2.594l-9.657,0l0,-11.453Z" style="fill:#fff;fill-rule:nonzero;"/><path d="M95.356,92.296l3.102,0.937c-0.209,0.87 -0.537,1.596 -0.985,2.18c-0.448,0.583 -1.004,1.023 -1.668,1.32c-0.664,0.297 -1.509,0.445 -2.535,0.445c-1.245,0 -2.262,-0.181 -3.051,-0.543c-0.789,-0.362 -1.47,-0.998 -2.043,-1.91c-0.573,-0.911 -0.859,-2.078 -0.859,-3.5c0,-1.896 0.504,-3.353 1.512,-4.371c1.007,-1.018 2.433,-1.527 4.277,-1.527c1.443,0 2.577,0.291 3.402,0.875c0.826,0.583 1.439,1.479 1.84,2.687l-3.125,0.696c-0.109,-0.349 -0.224,-0.605 -0.344,-0.766c-0.198,-0.271 -0.44,-0.479 -0.726,-0.625c-0.287,-0.146 -0.607,-0.219 -0.961,-0.219c-0.802,0 -1.417,0.323 -1.844,0.969c-0.323,0.479 -0.484,1.232 -0.484,2.258c0,1.271 0.192,2.142 0.578,2.613c0.385,0.471 0.927,0.707 1.625,0.707c0.677,0 1.189,-0.19 1.535,-0.57c0.346,-0.38 0.598,-0.933 0.754,-1.656Z" style="fill:#fff;fill-rule:nonzero;"/><path d="M107.949,85.522l3.532,0l0,6.828c0,0.677 -0.106,1.317 -0.317,1.918c-0.211,0.602 -0.541,1.128 -0.992,1.578c-0.45,0.451 -0.923,0.767 -1.418,0.95c-0.687,0.255 -1.513,0.382 -2.476,0.382c-0.558,0 -1.166,-0.039 -1.825,-0.117c-0.659,-0.078 -1.209,-0.233 -1.652,-0.465c-0.443,-0.231 -0.848,-0.561 -1.215,-0.988c-0.367,-0.427 -0.618,-0.867 -0.754,-1.32c-0.219,-0.729 -0.328,-1.375 -0.328,-1.938l0,-6.828l3.531,0l0,6.992c0,0.625 0.173,1.114 0.52,1.465c0.346,0.352 0.827,0.527 1.441,0.527c0.61,0 1.087,-0.173 1.434,-0.519c0.346,-0.346 0.519,-0.837 0.519,-1.473l0,-6.992Z" style="fill:#fff;fill-rule:nonzero;"/><path d="M114.191,96.975l0,-11.453l5.899,0c1.093,0 1.929,0.094 2.508,0.281c0.578,0.188 1.044,0.535 1.398,1.043c0.354,0.508 0.531,1.127 0.531,1.856c0,0.635 -0.135,1.183 -0.406,1.644c-0.271,0.461 -0.643,0.835 -1.117,1.121c-0.302,0.183 -0.716,0.334 -1.242,0.454c0.421,0.14 0.729,0.281 0.921,0.421c0.131,0.094 0.319,0.295 0.567,0.602c0.247,0.307 0.413,0.544 0.496,0.711l1.711,3.32l-4,0l-1.891,-3.5c-0.239,-0.453 -0.453,-0.747 -0.64,-0.883c-0.256,-0.177 -0.545,-0.265 -0.868,-0.265l-0.312,0l0,4.648l-3.555,0Zm3.555,-6.812l1.492,0c0.162,0 0.474,-0.052 0.938,-0.157c0.234,-0.046 0.425,-0.166 0.574,-0.359c0.148,-0.193 0.223,-0.414 0.223,-0.664c0,-0.37 -0.118,-0.654 -0.352,-0.852c-0.234,-0.197 -0.675,-0.296 -1.32,-0.296l-1.555,0l0,2.328Z" style="fill:#fff;fill-rule:nonzero;"/><rect x="127.05" y="85.522" width="3.547" height="11.453" style="fill:#fff;fill-rule:nonzero;"/><path d="M132.652,85.522l10.757,0l0,2.828l-3.609,0l0,8.625l-3.539,0l0,-8.625l-3.609,0l0,-2.828Z" style="fill:#fff;fill-rule:nonzero;"/><path d="M144.175,85.522l3.929,0l2.313,3.867l2.312,-3.867l3.907,0l-4.454,6.656l0,4.797l-3.546,0l0,-4.797l-4.461,-6.656Z" style="fill:#fff;fill-rule:nonzero;"/></g><path d="M110,76.263c0,0 25,0 25,-41.021c0,-13.798 -11.202,-25 -25,-25c-13.798,0 -25,11.202 -25,25c0,41.021 25,41.021 25,41.021Z" style="fill:#fecf00;"/><clipPath id="_clip2"><path d="M110,76.263c0,0 25,0 25,-41.021c0,-13.798 -11.202,-25 -25,-25c-13.798,0 -25,11.202 -25,25c0,41.021 25,41.021 25,41.021Z"/></clipPath><g clip-path="url(#_clip2)"><path d="M122.5,53.258c0,-3.864 -5.601,-7 -12.5,-7c-6.899,0 -12.5,3.136 -12.5,7c2.083,-1.932 6.967,-3.5 12.5,-3.5c5.533,0 10.417,1.568 12.5,3.5Z" style="fill:#da291c;"/><g><rect x="105.069" y="34.753" width="9.862" height="2"/><path d="M113.534,33.329c-1.02,1.039 -1.562,2.246 -1.562,3.48c0,3.556 4.419,6.444 9.862,6.444c5.443,0 9.862,-2.888 9.862,-6.444c0,-1.234 -0.542,-2.441 -1.561,-3.48l-16.601,0Z"/><path d="M89.865,33.329c-1.019,1.039 -1.561,2.246 -1.561,3.48c0,3.556 4.419,6.444 9.862,6.444c5.443,0 9.862,-2.888 9.862,-6.444c0,-1.234 -0.542,-2.441 -1.562,-3.48l-16.601,0Z"/></g></g></svg>